<mxfile host="app.diagrams.net" agent="Mozilla/5.0 (Windows NT 10.0; Win64; x64) AppleWebKit/537.36 (KHTML, like Gecko) Chrome/131.0.0.0 Safari/537.36" version="24.8.8">
  <diagram name="Page-1" id="15pmQjvzWVOdWkpq9kxC">
    <mxGraphModel dx="875" dy="479" grid="1" gridSize="10" guides="1" tooltips="1" connect="1" arrows="1" fold="1" page="1" pageScale="1" pageWidth="850" pageHeight="1100" math="0" shadow="0">
      <root>
        <mxCell id="0" />
        <mxCell id="1" parent="0" />
        <mxCell id="b2aNk2pkw3YLbQkPUHE_-1" value="Start" style="ellipse;whiteSpace=wrap;html=1;aspect=fixed;" vertex="1" parent="1">
          <mxGeometry x="70" y="90" width="50" height="50" as="geometry" />
        </mxCell>
        <mxCell id="b2aNk2pkw3YLbQkPUHE_-3" value="Landing Page" style="rounded=1;whiteSpace=wrap;html=1;fillColor=none;" vertex="1" parent="1">
          <mxGeometry x="210" y="95" width="120" height="40" as="geometry" />
        </mxCell>
        <mxCell id="b2aNk2pkw3YLbQkPUHE_-4" value="" style="endArrow=classic;html=1;rounded=0;entryX=0;entryY=0.5;entryDx=0;entryDy=0;exitX=1;exitY=0.5;exitDx=0;exitDy=0;" edge="1" parent="1" source="b2aNk2pkw3YLbQkPUHE_-1" target="b2aNk2pkw3YLbQkPUHE_-3">
          <mxGeometry width="50" height="50" relative="1" as="geometry">
            <mxPoint x="120" y="120" as="sourcePoint" />
            <mxPoint x="170" y="70" as="targetPoint" />
          </mxGeometry>
        </mxCell>
        <mxCell id="b2aNk2pkw3YLbQkPUHE_-5" value="" style="endArrow=classic;html=1;rounded=0;exitX=0.5;exitY=1;exitDx=0;exitDy=0;" edge="1" parent="1" source="b2aNk2pkw3YLbQkPUHE_-3">
          <mxGeometry width="50" height="50" relative="1" as="geometry">
            <mxPoint x="260" y="180" as="sourcePoint" />
            <mxPoint x="270" y="170" as="targetPoint" />
          </mxGeometry>
        </mxCell>
        <mxCell id="b2aNk2pkw3YLbQkPUHE_-6" value="Login Page" style="rounded=1;whiteSpace=wrap;html=1;fillColor=none;" vertex="1" parent="1">
          <mxGeometry x="210" y="170" width="120" height="40" as="geometry" />
        </mxCell>
        <mxCell id="b2aNk2pkw3YLbQkPUHE_-7" value="" style="endArrow=classic;html=1;rounded=0;exitX=0.5;exitY=1;exitDx=0;exitDy=0;" edge="1" parent="1">
          <mxGeometry width="50" height="50" relative="1" as="geometry">
            <mxPoint x="269.8" y="210" as="sourcePoint" />
            <mxPoint x="269.8" y="245" as="targetPoint" />
          </mxGeometry>
        </mxCell>
        <mxCell id="b2aNk2pkw3YLbQkPUHE_-9" style="edgeStyle=orthogonalEdgeStyle;rounded=0;orthogonalLoop=1;jettySize=auto;html=1;" edge="1" parent="1" source="b2aNk2pkw3YLbQkPUHE_-8">
          <mxGeometry relative="1" as="geometry">
            <mxPoint x="360" y="283" as="targetPoint" />
          </mxGeometry>
        </mxCell>
        <mxCell id="b2aNk2pkw3YLbQkPUHE_-12" style="edgeStyle=orthogonalEdgeStyle;rounded=0;orthogonalLoop=1;jettySize=auto;html=1;" edge="1" parent="1" source="b2aNk2pkw3YLbQkPUHE_-8">
          <mxGeometry relative="1" as="geometry">
            <mxPoint x="270" y="350" as="targetPoint" />
          </mxGeometry>
        </mxCell>
        <mxCell id="b2aNk2pkw3YLbQkPUHE_-8" value="is Admin" style="rhombus;whiteSpace=wrap;html=1;fillColor=none;" vertex="1" parent="1">
          <mxGeometry x="230" y="243" width="80" height="80" as="geometry" />
        </mxCell>
        <mxCell id="b2aNk2pkw3YLbQkPUHE_-17" style="edgeStyle=orthogonalEdgeStyle;rounded=0;orthogonalLoop=1;jettySize=auto;html=1;" edge="1" parent="1" source="b2aNk2pkw3YLbQkPUHE_-10">
          <mxGeometry relative="1" as="geometry">
            <mxPoint x="520" y="283" as="targetPoint" />
          </mxGeometry>
        </mxCell>
        <mxCell id="b2aNk2pkw3YLbQkPUHE_-10" value="Admin Login Page" style="rounded=1;whiteSpace=wrap;html=1;fillColor=none;" vertex="1" parent="1">
          <mxGeometry x="360" y="263" width="120" height="40" as="geometry" />
        </mxCell>
        <mxCell id="b2aNk2pkw3YLbQkPUHE_-11" value="Yes" style="text;html=1;align=center;verticalAlign=middle;whiteSpace=wrap;rounded=0;" vertex="1" parent="1">
          <mxGeometry x="300" y="260" width="60" height="30" as="geometry" />
        </mxCell>
        <mxCell id="b2aNk2pkw3YLbQkPUHE_-14" style="edgeStyle=orthogonalEdgeStyle;rounded=0;orthogonalLoop=1;jettySize=auto;html=1;" edge="1" parent="1" source="b2aNk2pkw3YLbQkPUHE_-13">
          <mxGeometry relative="1" as="geometry">
            <mxPoint x="270" y="420" as="targetPoint" />
          </mxGeometry>
        </mxCell>
        <mxCell id="b2aNk2pkw3YLbQkPUHE_-13" value="User - OAuth Login Page" style="rounded=1;whiteSpace=wrap;html=1;fillColor=none;" vertex="1" parent="1">
          <mxGeometry x="210" y="350" width="120" height="40" as="geometry" />
        </mxCell>
        <mxCell id="b2aNk2pkw3YLbQkPUHE_-15" value="Review Dashboard/Main page" style="rounded=1;whiteSpace=wrap;html=1;fillColor=none;" vertex="1" parent="1">
          <mxGeometry x="205" y="420" width="130" height="40" as="geometry" />
        </mxCell>
        <mxCell id="b2aNk2pkw3YLbQkPUHE_-16" value="No" style="text;html=1;align=center;verticalAlign=middle;whiteSpace=wrap;rounded=0;" vertex="1" parent="1">
          <mxGeometry x="227" y="315" width="60" height="30" as="geometry" />
        </mxCell>
        <mxCell id="b2aNk2pkw3YLbQkPUHE_-18" value="Admin Dashboard" style="rounded=1;whiteSpace=wrap;html=1;fillColor=none;" vertex="1" parent="1">
          <mxGeometry x="660" y="260" width="120" height="40" as="geometry" />
        </mxCell>
        <mxCell id="b2aNk2pkw3YLbQkPUHE_-22" style="edgeStyle=orthogonalEdgeStyle;rounded=0;orthogonalLoop=1;jettySize=auto;html=1;" edge="1" parent="1" source="b2aNk2pkw3YLbQkPUHE_-19">
          <mxGeometry relative="1" as="geometry">
            <mxPoint x="660" y="283" as="targetPoint" />
          </mxGeometry>
        </mxCell>
        <mxCell id="b2aNk2pkw3YLbQkPUHE_-23" style="edgeStyle=orthogonalEdgeStyle;rounded=0;orthogonalLoop=1;jettySize=auto;html=1;" edge="1" parent="1" source="b2aNk2pkw3YLbQkPUHE_-19">
          <mxGeometry relative="1" as="geometry">
            <mxPoint x="565" y="360" as="targetPoint" />
          </mxGeometry>
        </mxCell>
        <mxCell id="b2aNk2pkw3YLbQkPUHE_-19" value="&lt;font style=&quot;font-size: 11px;&quot;&gt;Login &lt;br&gt;Successful ?&lt;/font&gt;" style="rhombus;whiteSpace=wrap;html=1;fillColor=none;" vertex="1" parent="1">
          <mxGeometry x="520" y="239.5" width="90" height="87" as="geometry" />
        </mxCell>
        <mxCell id="b2aNk2pkw3YLbQkPUHE_-20" value="Yes" style="text;html=1;align=center;verticalAlign=middle;whiteSpace=wrap;rounded=0;" vertex="1" parent="1">
          <mxGeometry x="602" y="257" width="60" height="30" as="geometry" />
        </mxCell>
        <mxCell id="b2aNk2pkw3YLbQkPUHE_-24" value="Reset Password" style="rounded=1;whiteSpace=wrap;html=1;fillColor=none;" vertex="1" parent="1">
          <mxGeometry x="505" y="360" width="120" height="40" as="geometry" />
        </mxCell>
      </root>
    </mxGraphModel>
  </diagram>
</mxfile>
